<?xml version="1.0" encoding="UTF-8"?>
<!DOCTYPE svg PUBLIC "-//W3C//DTD SVG 1.1//EN" "http://www.w3.org/Graphics/SVG/1.1/DTD/svg11.dtd">
<!-- Creator: CorelDRAW -->
<svg xmlns="http://www.w3.org/2000/svg" xml:space="preserve" width="6.82666in" height="6.82666in" style="shape-rendering:geometricPrecision; text-rendering:geometricPrecision; image-rendering:optimizeQuality; fill-rule:evenodd; clip-rule:evenodd"
viewBox="0 0 6.82666 6.82666"
 xmlns:xlink="http://www.w3.org/1999/xlink">
 <defs>
  <style type="text/css">
   <![CDATA[
    .fil2 {fill:none}
    .fil3 {fill:#BA68C8}
    .fil0 {fill:#FFCC80}
    .fil1 {fill:#AB47BC;fill-rule:nonzero}
   ]]>
  </style>
 </defs>
 <g id="Layer_x0020_1">
  <metadata id="CorelCorpID_0Corel-Layer"/>
  <circle class="fil0" cx="3.94667" cy="3.19999" r="1.06667"/>
  <path class="fil1" d="M0.853331 2.34666c-0.0589094,0 -0.106669,0.0477598 -0.106669,0.106669 0,0.0589094 0.0477598,0.106669 0.106669,0.106669l0.319213 0c0.0589094,0 0.106669,-0.0477598 0.106669,-0.106669 0,-0.0589094 -0.0477598,-0.106669 -0.106669,-0.106669l-0.319213 0z"/>
  <path class="fil1" d="M5.97333 2.56c0.0589094,0 0.106669,-0.0477598 0.106669,-0.106669 0,-0.0589094 -0.0477598,-0.106669 -0.106669,-0.106669l-0.319213 0c-0.0589094,0 -0.106669,0.0477598 -0.106669,0.106669 0,0.0589094 0.0477598,0.106669 0.106669,0.106669l0.319213 0z"/>
  <g id="_488783152">
   <rect id="_488782744" class="fil2" width="6.82666" height="6.82666"/>
   <rect id="_488782528" class="fil2" x="0.853331" y="0.853331" width="5.12" height="5.12"/>
  </g>
  <path class="fil3" d="M5.65463 2.44733c0,-0.328602 -0.207004,-0.633988 -0.534638,-0.633988l-0.319988 0 -0.383606 -0.320016 -1.00145 0 -0.321598 0.320016 -0.533339 0c-0.0270118,-0.112154 -0.124925,-0.213335 -0.212563,-0.213335l-0.427441 0c-0.0881181,0 -0.186736,0.0998504 -0.213323,0.213335 -0.338504,0.0298228 -0.534134,0.317492 -0.534134,0.64l0 2.28421c0,0.328602 0.266079,0.595772 0.593122,0.595772l3.29581 0c0.327185,0 0.59315,-0.267169 0.59315,-0.595772l0 -2.29022zm-1.72021 0.006c-0.206087,0 -0.392941,0.0838071 -0.52822,0.219051 -0.135043,0.135004 -0.218713,0.321669 -0.218713,0.527661 0,0.206067 0.0836378,0.392681 0.218638,0.52763 0.135283,0.135228 0.322165,0.218984 0.528295,0.218984 0.20585,0 0.392496,-0.0837323 0.527685,-0.218921 0.135201,-0.135201 0.218929,-0.321862 0.218929,-0.527693 0,-0.205756 -0.0837559,-0.392465 -0.219004,-0.527724 -0.135189,-0.135205 -0.321803,-0.218988 -0.52761,-0.218988zm-0.67822 0.0682165c0.173878,-0.173835 0.413807,-0.281555 0.67822,-0.281555 0.264709,0 0.504669,0.107697 0.678445,0.281492 0.173846,0.173866 0.281508,0.413933 0.281508,0.678559 0,0.264717 -0.10763,0.504724 -0.281433,0.678528 -0.173787,0.173787 -0.413783,0.281425 -0.67852,0.281425 -0.264441,0 -0.504402,-0.107661 -0.678295,-0.281488 -0.17411,-0.174043 -0.281976,-0.414047 -0.281976,-0.678465 0,-0.264331 0.107898,-0.504394 0.282051,-0.678496zm0.678138 0.358449c-0.0884606,0 -0.168626,0.0359291 -0.226614,0.0939016 -0.0577402,0.0577244 -0.0935197,0.137713 -0.0935197,0.226122 0,0.0884449 0.0357638,0.168406 0.0934882,0.226106 0.0579843,0.0579606 0.138161,0.0938661 0.226646,0.0938661 0.0882047,0 0.168193,-0.0358898 0.226138,-0.0938346 0.0579488,-0.0579488 0.0938386,-0.137945 0.0938386,-0.226138 0,-0.0881614 -0.0359055,-0.168181 -0.093874,-0.226157 -0.0579488,-0.0579528 -0.137921,-0.0938661 -0.226102,-0.0938661zm-0.376614 -0.0569331c0.0965945,-0.096563 0.229831,-0.156406 0.376614,-0.156406 0.147083,0 0.280402,0.0598228 0.376937,0.15637 0.0965709,0.0965827 0.156378,0.229965 0.156378,0.376992 0,0.147079 -0.0597953,0.280425 -0.156343,0.376972 -0.0965433,0.0965433 -0.229882,0.156339 -0.376972,0.156339 -0.146795,0 -0.280051,-0.059811 -0.376646,-0.15637 -0.0968346,-0.0967953 -0.156827,-0.230146 -0.156827,-0.376941 0,-0.146752 0.0600079,-0.28013 0.156858,-0.376957z"/>
 </g>
</svg>
